<mxfile host="app.diagrams.net" modified="2021-04-08T11:31:36.473Z" agent="5.0 (Windows NT 10.0; WOW64) AppleWebKit/537.36 (KHTML, like Gecko) Chrome/75.0.3770.100 Safari/537.36" etag="XRg2RCHJ9QRS_m97D3Yw" version="14.5.8" type="github">
  <diagram id="SXEYLcMqSf7-T7kPatKO" name="Page-1">
    <mxGraphModel dx="981" dy="524" grid="1" gridSize="10" guides="1" tooltips="1" connect="1" arrows="1" fold="1" page="1" pageScale="1" pageWidth="827" pageHeight="1169" math="0" shadow="0">
      <root>
        <mxCell id="0" />
        <mxCell id="1" parent="0" />
        <mxCell id="fBSgZwWfRKQs4gMfS5-9-3" value="" style="edgeStyle=orthogonalEdgeStyle;rounded=0;orthogonalLoop=1;jettySize=auto;html=1;" edge="1" parent="1" source="fBSgZwWfRKQs4gMfS5-9-1" target="fBSgZwWfRKQs4gMfS5-9-2">
          <mxGeometry relative="1" as="geometry" />
        </mxCell>
        <mxCell id="fBSgZwWfRKQs4gMfS5-9-1" value="采购单-确认入库" style="whiteSpace=wrap;html=1;aspect=fixed;" vertex="1" parent="1">
          <mxGeometry x="130" y="250" width="80" height="80" as="geometry" />
        </mxCell>
        <mxCell id="fBSgZwWfRKQs4gMfS5-9-5" value="" style="edgeStyle=orthogonalEdgeStyle;rounded=0;orthogonalLoop=1;jettySize=auto;html=1;" edge="1" parent="1" source="fBSgZwWfRKQs4gMfS5-9-2" target="fBSgZwWfRKQs4gMfS5-9-4">
          <mxGeometry relative="1" as="geometry" />
        </mxCell>
        <mxCell id="fBSgZwWfRKQs4gMfS5-9-2" value="选择库位" style="whiteSpace=wrap;html=1;aspect=fixed;" vertex="1" parent="1">
          <mxGeometry x="290" y="250" width="80" height="80" as="geometry" />
        </mxCell>
        <mxCell id="fBSgZwWfRKQs4gMfS5-9-4" value="插入采购单关联表" style="whiteSpace=wrap;html=1;aspect=fixed;" vertex="1" parent="1">
          <mxGeometry x="450" y="250" width="80" height="80" as="geometry" />
        </mxCell>
        <mxCell id="fBSgZwWfRKQs4gMfS5-9-6" value="入库" style="text;html=1;strokeColor=none;fillColor=none;align=center;verticalAlign=middle;whiteSpace=wrap;rounded=0;" vertex="1" parent="1">
          <mxGeometry x="130" y="190" width="40" height="20" as="geometry" />
        </mxCell>
        <mxCell id="fBSgZwWfRKQs4gMfS5-9-7" value="出库" style="text;html=1;strokeColor=none;fillColor=none;align=center;verticalAlign=middle;whiteSpace=wrap;rounded=0;" vertex="1" parent="1">
          <mxGeometry x="130" y="350" width="40" height="20" as="geometry" />
        </mxCell>
      </root>
    </mxGraphModel>
  </diagram>
</mxfile>
